<?xml version="1.0" encoding="UTF-8" standalone="no"?>
<!DOCTYPE svg PUBLIC "-//W3C//DTD SVG 1.1//EN"
 "http://www.w3.org/Graphics/SVG/1.1/DTD/svg11.dtd">
<!-- Generated by graphviz version 2.36.0 (20140111.2315)
 -->
<!-- Title: controllers_diagram Pages: 1 -->
<svg width="833pt" height="656pt"
 viewBox="0.00 0.00 833.00 656.30" xmlns="http://www.w3.org/2000/svg" xmlns:xlink="http://www.w3.org/1999/xlink">
<g id="graph0" class="graph" transform="scale(1 1) rotate(0) translate(4 652.295)">
<title>controllers_diagram</title>
<polygon fill="none" stroke="none" points="-4,4 -4,-652.295 829,-652.295 829,4 -4,4"/>
<!-- _diagram_info -->
<g id="node1" class="node"><title>_diagram_info</title>
<text text-anchor="start" x="619" y="-63.6" font-family="Times,serif" font-size="13.00">Controllers diagram</text>
<text text-anchor="start" x="619" y="-49.6" font-family="Times,serif" font-size="13.00">Date: Aug 10 2015 &#45; 10:08</text>
<text text-anchor="start" x="619" y="-35.6" font-family="Times,serif" font-size="13.00">Migration version: 20150730151739</text>
<text text-anchor="start" x="619" y="-21.6" font-family="Times,serif" font-size="13.00">Generated by RailRoady 1.3.1</text>
<text text-anchor="start" x="619" y="-7.6" font-family="Times,serif" font-size="13.00">http://railroady.prestonlee.com</text>
</g>
<!-- UsersController -->
<g id="node2" class="node"><title>UsersController</title>
<path fill="none" stroke="black" d="M16.0576,-222.102C16.0576,-222.102 95.0576,-222.102 95.0576,-222.102 101.058,-222.102 107.058,-228.102 107.058,-234.102 107.058,-234.102 107.058,-423.102 107.058,-423.102 107.058,-429.102 101.058,-435.102 95.0576,-435.102 95.0576,-435.102 16.0576,-435.102 16.0576,-435.102 10.0576,-435.102 4.05765,-429.102 4.05765,-423.102 4.05765,-423.102 4.05765,-234.102 4.05765,-234.102 4.05765,-228.102 10.0576,-222.102 16.0576,-222.102"/>
<text text-anchor="middle" x="55.5576" y="-419.902" font-family="Times,serif" font-size="14.00">UsersController</text>
<polyline fill="none" stroke="black" points="4.05765,-412.102 107.058,-412.102 "/>
<text text-anchor="start" x="12.0576" y="-396.902" font-family="Times,serif" font-size="14.00">create</text>
<text text-anchor="start" x="12.0576" y="-381.902" font-family="Times,serif" font-size="14.00">destroy</text>
<text text-anchor="start" x="12.0576" y="-366.902" font-family="Times,serif" font-size="14.00">edit</text>
<text text-anchor="start" x="12.0576" y="-351.902" font-family="Times,serif" font-size="14.00">index</text>
<text text-anchor="start" x="12.0576" y="-336.902" font-family="Times,serif" font-size="14.00">new</text>
<text text-anchor="start" x="12.0576" y="-321.902" font-family="Times,serif" font-size="14.00">show</text>
<text text-anchor="start" x="12.0576" y="-306.902" font-family="Times,serif" font-size="14.00">update</text>
<polyline fill="none" stroke="black" points="4.05765,-299.102 107.058,-299.102 "/>
<polyline fill="none" stroke="black" points="4.05765,-275.102 107.058,-275.102 "/>
<text text-anchor="start" x="12.0576" y="-259.902" font-family="Times,serif" font-size="14.00">_layout</text>
<text text-anchor="start" x="12.0576" y="-244.902" font-family="Times,serif" font-size="14.00">correct_user</text>
<text text-anchor="start" x="12.0576" y="-229.902" font-family="Times,serif" font-size="14.00">user_params</text>
</g>
<!-- ProductsController -->
<g id="node3" class="node"><title>ProductsController</title>
<path fill="none" stroke="black" d="M410.765,-15.8753C410.765,-15.8753 505.765,-15.8753 505.765,-15.8753 511.765,-15.8753 517.765,-21.8753 517.765,-27.8753 517.765,-27.8753 517.765,-201.875 517.765,-201.875 517.765,-207.875 511.765,-213.875 505.765,-213.875 505.765,-213.875 410.765,-213.875 410.765,-213.875 404.765,-213.875 398.765,-207.875 398.765,-201.875 398.765,-201.875 398.765,-27.8753 398.765,-27.8753 398.765,-21.8753 404.765,-15.8753 410.765,-15.8753"/>
<text text-anchor="middle" x="458.265" y="-198.675" font-family="Times,serif" font-size="14.00">ProductsController</text>
<polyline fill="none" stroke="black" points="398.765,-190.875 517.765,-190.875 "/>
<text text-anchor="start" x="406.765" y="-175.675" font-family="Times,serif" font-size="14.00">create</text>
<text text-anchor="start" x="406.765" y="-160.675" font-family="Times,serif" font-size="14.00">destroy</text>
<text text-anchor="start" x="406.765" y="-145.675" font-family="Times,serif" font-size="14.00">edit</text>
<text text-anchor="start" x="406.765" y="-130.675" font-family="Times,serif" font-size="14.00">index</text>
<text text-anchor="start" x="406.765" y="-115.675" font-family="Times,serif" font-size="14.00">new</text>
<text text-anchor="start" x="406.765" y="-100.675" font-family="Times,serif" font-size="14.00">show</text>
<text text-anchor="start" x="406.765" y="-85.6753" font-family="Times,serif" font-size="14.00">update</text>
<polyline fill="none" stroke="black" points="398.765,-77.8753 517.765,-77.8753 "/>
<polyline fill="none" stroke="black" points="398.765,-53.8753 517.765,-53.8753 "/>
<text text-anchor="start" x="406.765" y="-38.6753" font-family="Times,serif" font-size="14.00">_layout</text>
<text text-anchor="start" x="406.765" y="-23.6753" font-family="Times,serif" font-size="14.00">product_params</text>
</g>
<!-- ApplicationController -->
<g id="node4" class="node"><title>ApplicationController</title>
<path fill="none" stroke="black" d="M197.326,-241.61C197.326,-241.61 309.326,-241.61 309.326,-241.61 315.326,-241.61 321.326,-247.61 321.326,-253.61 321.326,-253.61 321.326,-353.61 321.326,-353.61 321.326,-359.61 315.326,-365.61 309.326,-365.61 309.326,-365.61 197.326,-365.61 197.326,-365.61 191.326,-365.61 185.326,-359.61 185.326,-353.61 185.326,-353.61 185.326,-253.61 185.326,-253.61 185.326,-247.61 191.326,-241.61 197.326,-241.61"/>
<text text-anchor="middle" x="253.326" y="-350.41" font-family="Times,serif" font-size="14.00">ApplicationController</text>
<polyline fill="none" stroke="black" points="185.326,-342.61 321.326,-342.61 "/>
<polyline fill="none" stroke="black" points="185.326,-318.61 321.326,-318.61 "/>
<polyline fill="none" stroke="black" points="185.326,-294.61 321.326,-294.61 "/>
<text text-anchor="start" x="193.326" y="-279.41" font-family="Times,serif" font-size="14.00">_layout</text>
<text text-anchor="start" x="193.326" y="-264.41" font-family="Times,serif" font-size="14.00">logged_in_admin</text>
<text text-anchor="start" x="193.326" y="-249.41" font-family="Times,serif" font-size="14.00">logged_in_user</text>
</g>
<!-- ApplicationController&#45;&gt;UsersController -->
<g id="edge1" class="edge"><title>ApplicationController&#45;&gt;UsersController</title>
<path fill="none" stroke="black" d="M185.265,-312.211C159.678,-315.444 131.032,-319.064 107.182,-322.078"/>
</g>
<!-- ApplicationController&#45;&gt;ProductsController -->
<g id="edge2" class="edge"><title>ApplicationController&#45;&gt;ProductsController</title>
<path fill="none" stroke="black" d="M320.714,-241.55C345.797,-218.45 374.069,-192.414 398.429,-169.98"/>
</g>
<!-- StoresController -->
<g id="node5" class="node"><title>StoresController</title>
<path fill="none" stroke="black" d="M209.199,-480.157C209.199,-480.157 291.199,-480.157 291.199,-480.157 297.199,-480.157 303.199,-486.157 303.199,-492.157 303.199,-492.157 303.199,-576.157 303.199,-576.157 303.199,-582.157 297.199,-588.157 291.199,-588.157 291.199,-588.157 209.199,-588.157 209.199,-588.157 203.199,-588.157 197.199,-582.157 197.199,-576.157 197.199,-576.157 197.199,-492.157 197.199,-492.157 197.199,-486.157 203.199,-480.157 209.199,-480.157"/>
<text text-anchor="middle" x="250.199" y="-572.957" font-family="Times,serif" font-size="14.00">StoresController</text>
<polyline fill="none" stroke="black" points="197.199,-565.157 303.199,-565.157 "/>
<text text-anchor="start" x="205.199" y="-549.957" font-family="Times,serif" font-size="14.00">index</text>
<text text-anchor="start" x="205.199" y="-534.957" font-family="Times,serif" font-size="14.00">show</text>
<polyline fill="none" stroke="black" points="197.199,-527.157 303.199,-527.157 "/>
<polyline fill="none" stroke="black" points="197.199,-503.157 303.199,-503.157 "/>
<text text-anchor="start" x="205.199" y="-487.957" font-family="Times,serif" font-size="14.00">_layout</text>
</g>
<!-- ApplicationController&#45;&gt;StoresController -->
<g id="edge3" class="edge"><title>ApplicationController&#45;&gt;StoresController</title>
<path fill="none" stroke="black" d="M252.484,-365.696C252.001,-401.305 251.4,-445.587 250.936,-479.813"/>
</g>
<!-- StaticPagesController -->
<g id="node6" class="node"><title>StaticPagesController</title>
<path fill="none" stroke="black" d="M393.68,-501.247C393.68,-501.247 503.68,-501.247 503.68,-501.247 509.68,-501.247 515.68,-507.247 515.68,-513.247 515.68,-513.247 515.68,-597.247 515.68,-597.247 515.68,-603.247 509.68,-609.247 503.68,-609.247 503.68,-609.247 393.68,-609.247 393.68,-609.247 387.68,-609.247 381.68,-603.247 381.68,-597.247 381.68,-597.247 381.68,-513.247 381.68,-513.247 381.68,-507.247 387.68,-501.247 393.68,-501.247"/>
<text text-anchor="middle" x="448.68" y="-594.047" font-family="Times,serif" font-size="14.00">StaticPagesController</text>
<polyline fill="none" stroke="black" points="381.68,-586.247 515.68,-586.247 "/>
<text text-anchor="start" x="389.68" y="-571.047" font-family="Times,serif" font-size="14.00">help</text>
<text text-anchor="start" x="389.68" y="-556.047" font-family="Times,serif" font-size="14.00">home</text>
<polyline fill="none" stroke="black" points="381.68,-548.247 515.68,-548.247 "/>
<polyline fill="none" stroke="black" points="381.68,-524.247 515.68,-524.247 "/>
<text text-anchor="start" x="389.68" y="-509.047" font-family="Times,serif" font-size="14.00">_layout</text>
</g>
<!-- ApplicationController&#45;&gt;StaticPagesController -->
<g id="edge4" class="edge"><title>ApplicationController&#45;&gt;StaticPagesController</title>
<path fill="none" stroke="black" d="M301.615,-365.812C333.817,-407.292 375.737,-461.289 406.578,-501.016"/>
</g>
<!-- OrdersController -->
<g id="node7" class="node"><title>OrdersController</title>
<path fill="none" stroke="black" d="M12.7893,-449.795C12.7893,-449.795 97.7893,-449.795 97.7893,-449.795 103.789,-449.795 109.789,-455.795 109.789,-461.795 109.789,-461.795 109.789,-635.795 109.789,-635.795 109.789,-641.795 103.789,-647.795 97.7893,-647.795 97.7893,-647.795 12.7893,-647.795 12.7893,-647.795 6.78928,-647.795 0.789278,-641.795 0.789278,-635.795 0.789278,-635.795 0.789278,-461.795 0.789278,-461.795 0.789278,-455.795 6.78928,-449.795 12.7893,-449.795"/>
<text text-anchor="middle" x="55.2893" y="-632.595" font-family="Times,serif" font-size="14.00">OrdersController</text>
<polyline fill="none" stroke="black" points="0.789278,-624.795 109.789,-624.795 "/>
<text text-anchor="start" x="8.78928" y="-609.595" font-family="Times,serif" font-size="14.00">buy</text>
<text text-anchor="start" x="8.78928" y="-594.595" font-family="Times,serif" font-size="14.00">cart</text>
<text text-anchor="start" x="8.78928" y="-579.595" font-family="Times,serif" font-size="14.00">create</text>
<text text-anchor="start" x="8.78928" y="-564.595" font-family="Times,serif" font-size="14.00">destroy</text>
<text text-anchor="start" x="8.78928" y="-549.595" font-family="Times,serif" font-size="14.00">index</text>
<text text-anchor="start" x="8.78928" y="-534.595" font-family="Times,serif" font-size="14.00">manage</text>
<text text-anchor="start" x="8.78928" y="-519.595" font-family="Times,serif" font-size="14.00">update</text>
<polyline fill="none" stroke="black" points="0.789278,-511.795 109.789,-511.795 "/>
<polyline fill="none" stroke="black" points="0.789278,-487.795 109.789,-487.795 "/>
<text text-anchor="start" x="8.78928" y="-472.595" font-family="Times,serif" font-size="14.00">_layout</text>
<text text-anchor="start" x="8.78928" y="-457.595" font-family="Times,serif" font-size="14.00">order_params</text>
</g>
<!-- ApplicationController&#45;&gt;OrdersController -->
<g id="edge5" class="edge"><title>ApplicationController&#45;&gt;OrdersController</title>
<path fill="none" stroke="black" d="M203.097,-365.798C174.678,-400.982 139.112,-445.016 109.989,-481.072"/>
</g>
<!-- SessionsController -->
<g id="node8" class="node"><title>SessionsController</title>
<path fill="none" stroke="black" d="M12,-44.3365C12,-44.3365 107,-44.3365 107,-44.3365 113,-44.3365 119,-50.3365 119,-56.3365 119,-56.3365 119,-155.337 119,-155.337 119,-161.337 113,-167.337 107,-167.337 107,-167.337 12,-167.337 12,-167.337 6,-167.337 0,-161.337 0,-155.337 0,-155.337 0,-56.3365 0,-56.3365 0,-50.3365 6,-44.3365 12,-44.3365"/>
<text text-anchor="middle" x="59.5" y="-152.137" font-family="Times,serif" font-size="14.00">SessionsController</text>
<polyline fill="none" stroke="black" points="0,-144.337 119,-144.337 "/>
<text text-anchor="start" x="8" y="-129.137" font-family="Times,serif" font-size="14.00">create</text>
<text text-anchor="start" x="8" y="-114.137" font-family="Times,serif" font-size="14.00">destroy</text>
<text text-anchor="start" x="8" y="-99.1365" font-family="Times,serif" font-size="14.00">new</text>
<polyline fill="none" stroke="black" points="0,-91.3365 119,-91.3365 "/>
<polyline fill="none" stroke="black" points="0,-67.3365 119,-67.3365 "/>
<text text-anchor="start" x="8" y="-52.1365" font-family="Times,serif" font-size="14.00">_layout</text>
</g>
<!-- ApplicationController&#45;&gt;SessionsController -->
<g id="edge6" class="edge"><title>ApplicationController&#45;&gt;SessionsController</title>
<path fill="none" stroke="black" d="M192.53,-241.576C169.104,-217.673 142.394,-190.418 119.084,-166.634"/>
</g>
<!-- UpgradesController -->
<g id="node9" class="node"><title>UpgradesController</title>
<path fill="none" stroke="black" d="M214.556,-0.5C214.556,-0.5 314.556,-0.5 314.556,-0.5 320.556,-0.5 326.556,-6.5 326.556,-12.5 326.556,-12.5 326.556,-171.5 326.556,-171.5 326.556,-177.5 320.556,-183.5 314.556,-183.5 314.556,-183.5 214.556,-183.5 214.556,-183.5 208.556,-183.5 202.556,-177.5 202.556,-171.5 202.556,-171.5 202.556,-12.5 202.556,-12.5 202.556,-6.5 208.556,-0.5 214.556,-0.5"/>
<text text-anchor="middle" x="264.556" y="-168.3" font-family="Times,serif" font-size="14.00">UpgradesController</text>
<polyline fill="none" stroke="black" points="202.556,-160.5 326.556,-160.5 "/>
<text text-anchor="start" x="210.556" y="-145.3" font-family="Times,serif" font-size="14.00">create</text>
<text text-anchor="start" x="210.556" y="-130.3" font-family="Times,serif" font-size="14.00">destroy</text>
<text text-anchor="start" x="210.556" y="-115.3" font-family="Times,serif" font-size="14.00">edit</text>
<text text-anchor="start" x="210.556" y="-100.3" font-family="Times,serif" font-size="14.00">index</text>
<text text-anchor="start" x="210.556" y="-85.3" font-family="Times,serif" font-size="14.00">new</text>
<text text-anchor="start" x="210.556" y="-70.3" font-family="Times,serif" font-size="14.00">update</text>
<polyline fill="none" stroke="black" points="202.556,-62.5 326.556,-62.5 "/>
<polyline fill="none" stroke="black" points="202.556,-38.5 326.556,-38.5 "/>
<text text-anchor="start" x="210.556" y="-23.3" font-family="Times,serif" font-size="14.00">_layout</text>
<text text-anchor="start" x="210.556" y="-8.3" font-family="Times,serif" font-size="14.00">upgrade_params</text>
</g>
<!-- ApplicationController&#45;&gt;UpgradesController -->
<g id="edge7" class="edge"><title>ApplicationController&#45;&gt;UpgradesController</title>
<path fill="none" stroke="black" d="M256.619,-241.55C257.584,-223.379 258.659,-203.118 259.699,-183.524"/>
</g>
<!-- CategoriesController -->
<g id="node10" class="node"><title>CategoriesController</title>
<path fill="none" stroke="black" d="M396.982,-251.117C396.982,-251.117 502.982,-251.117 502.982,-251.117 508.982,-251.117 514.982,-257.117 514.982,-263.117 514.982,-263.117 514.982,-422.117 514.982,-422.117 514.982,-428.117 508.982,-434.117 502.982,-434.117 502.982,-434.117 396.982,-434.117 396.982,-434.117 390.982,-434.117 384.982,-428.117 384.982,-422.117 384.982,-422.117 384.982,-263.117 384.982,-263.117 384.982,-257.117 390.982,-251.117 396.982,-251.117"/>
<text text-anchor="middle" x="449.982" y="-418.917" font-family="Times,serif" font-size="14.00">CategoriesController</text>
<polyline fill="none" stroke="black" points="384.982,-411.117 514.982,-411.117 "/>
<text text-anchor="start" x="392.982" y="-395.917" font-family="Times,serif" font-size="14.00">create</text>
<text text-anchor="start" x="392.982" y="-380.917" font-family="Times,serif" font-size="14.00">destroy</text>
<text text-anchor="start" x="392.982" y="-365.917" font-family="Times,serif" font-size="14.00">edit</text>
<text text-anchor="start" x="392.982" y="-350.917" font-family="Times,serif" font-size="14.00">index</text>
<text text-anchor="start" x="392.982" y="-335.917" font-family="Times,serif" font-size="14.00">new</text>
<text text-anchor="start" x="392.982" y="-320.917" font-family="Times,serif" font-size="14.00">update</text>
<polyline fill="none" stroke="black" points="384.982,-313.117 514.982,-313.117 "/>
<polyline fill="none" stroke="black" points="384.982,-289.117 514.982,-289.117 "/>
<text text-anchor="start" x="392.982" y="-273.917" font-family="Times,serif" font-size="14.00">_layout</text>
<text text-anchor="start" x="392.982" y="-258.917" font-family="Times,serif" font-size="14.00">category_params</text>
</g>
<!-- ApplicationController&#45;&gt;CategoriesController -->
<g id="edge8" class="edge"><title>ApplicationController&#45;&gt;CategoriesController</title>
<path fill="none" stroke="black" d="M321.555,-317.143C342.078,-321.214 364.537,-325.669 384.854,-329.698"/>
</g>
</g>
</svg>
