<?xml version="1.0" encoding="UTF-8" standalone="no"?>
<!DOCTYPE svg PUBLIC "-//W3C//DTD SVG 1.1//EN"
 "http://www.w3.org/Graphics/SVG/1.1/DTD/svg11.dtd">
<!-- Generated by graphviz version 2.36.0 (20140111.2315)
 -->
<!-- Title: controllers_diagram Pages: 1 -->
<svg width="904pt" height="906pt"
 viewBox="0.00 0.00 904.00 906.24" xmlns="http://www.w3.org/2000/svg" xmlns:xlink="http://www.w3.org/1999/xlink">
<g id="graph0" class="graph" transform="scale(1 1) rotate(0) translate(4 902.237)">
<title>controllers_diagram</title>
<polygon fill="none" stroke="none" points="-4,4 -4,-902.237 900,-902.237 900,4 -4,4"/>
<!-- _diagram_info -->
<g id="node1" class="node"><title>_diagram_info</title>
<text text-anchor="start" x="690" y="-125.6" font-family="Times,serif" font-size="13.00">Controllers diagram</text>
<text text-anchor="start" x="690" y="-111.6" font-family="Times,serif" font-size="13.00">Date: Aug 09 2015 &#45; 08:13</text>
<text text-anchor="start" x="690" y="-97.6" font-family="Times,serif" font-size="13.00">Migration version: 20150730151739</text>
<text text-anchor="start" x="690" y="-83.6" font-family="Times,serif" font-size="13.00">Generated by RailRoady 1.3.1</text>
<text text-anchor="start" x="690" y="-69.6" font-family="Times,serif" font-size="13.00">http://railroady.prestonlee.com</text>
</g>
<!-- UsersController -->
<g id="node2" class="node"><title>UsersController</title>
<path fill="none" stroke="black" d="M24.5756,-236.259C24.5756,-236.259 112.576,-236.259 112.576,-236.259 118.576,-236.259 124.576,-242.259 124.576,-248.259 124.576,-248.259 124.576,-467.259 124.576,-467.259 124.576,-473.259 118.576,-479.259 112.576,-479.259 112.576,-479.259 24.5756,-479.259 24.5756,-479.259 18.5756,-479.259 12.5756,-473.259 12.5756,-467.259 12.5756,-467.259 12.5756,-248.259 12.5756,-248.259 12.5756,-242.259 18.5756,-236.259 24.5756,-236.259"/>
<text text-anchor="middle" x="68.5756" y="-464.059" font-family="Times,serif" font-size="14.00">UsersController</text>
<polyline fill="none" stroke="black" points="12.5756,-456.259 124.576,-456.259 "/>
<text text-anchor="start" x="20.5756" y="-441.059" font-family="Times,serif" font-size="14.00">create</text>
<text text-anchor="start" x="20.5756" y="-426.059" font-family="Times,serif" font-size="14.00">destroy</text>
<text text-anchor="start" x="20.5756" y="-411.059" font-family="Times,serif" font-size="14.00">edit</text>
<text text-anchor="start" x="20.5756" y="-396.059" font-family="Times,serif" font-size="14.00">index</text>
<text text-anchor="start" x="20.5756" y="-381.059" font-family="Times,serif" font-size="14.00">new</text>
<text text-anchor="start" x="20.5756" y="-366.059" font-family="Times,serif" font-size="14.00">show</text>
<text text-anchor="start" x="20.5756" y="-351.059" font-family="Times,serif" font-size="14.00">update</text>
<polyline fill="none" stroke="black" points="12.5756,-343.259 124.576,-343.259 "/>
<polyline fill="none" stroke="black" points="12.5756,-319.259 124.576,-319.259 "/>
<text text-anchor="start" x="20.5756" y="-304.059" font-family="Times,serif" font-size="14.00">_layout</text>
<text text-anchor="start" x="20.5756" y="-289.059" font-family="Times,serif" font-size="14.00">correct_user</text>
<text text-anchor="start" x="20.5756" y="-274.059" font-family="Times,serif" font-size="14.00">logged_in_admin</text>
<text text-anchor="start" x="20.5756" y="-259.059" font-family="Times,serif" font-size="14.00">logged_in_user</text>
<text text-anchor="start" x="20.5756" y="-244.059" font-family="Times,serif" font-size="14.00">user_params</text>
</g>
<!-- ProductsController -->
<g id="node3" class="node"><title>ProductsController</title>
<path fill="none" stroke="black" d="M565.857,-223.123C565.857,-223.123 660.857,-223.123 660.857,-223.123 666.857,-223.123 672.857,-229.123 672.857,-235.123 672.857,-235.123 672.857,-424.123 672.857,-424.123 672.857,-430.123 666.857,-436.123 660.857,-436.123 660.857,-436.123 565.857,-436.123 565.857,-436.123 559.857,-436.123 553.857,-430.123 553.857,-424.123 553.857,-424.123 553.857,-235.123 553.857,-235.123 553.857,-229.123 559.857,-223.123 565.857,-223.123"/>
<text text-anchor="middle" x="613.357" y="-420.923" font-family="Times,serif" font-size="14.00">ProductsController</text>
<polyline fill="none" stroke="black" points="553.857,-413.123 672.857,-413.123 "/>
<text text-anchor="start" x="561.857" y="-397.923" font-family="Times,serif" font-size="14.00">create</text>
<text text-anchor="start" x="561.857" y="-382.923" font-family="Times,serif" font-size="14.00">destroy</text>
<text text-anchor="start" x="561.857" y="-367.923" font-family="Times,serif" font-size="14.00">edit</text>
<text text-anchor="start" x="561.857" y="-352.923" font-family="Times,serif" font-size="14.00">index</text>
<text text-anchor="start" x="561.857" y="-337.923" font-family="Times,serif" font-size="14.00">new</text>
<text text-anchor="start" x="561.857" y="-322.923" font-family="Times,serif" font-size="14.00">show</text>
<text text-anchor="start" x="561.857" y="-307.923" font-family="Times,serif" font-size="14.00">update</text>
<polyline fill="none" stroke="black" points="553.857,-300.123 672.857,-300.123 "/>
<polyline fill="none" stroke="black" points="553.857,-276.123 672.857,-276.123 "/>
<text text-anchor="start" x="561.857" y="-260.923" font-family="Times,serif" font-size="14.00">_layout</text>
<text text-anchor="start" x="561.857" y="-245.923" font-family="Times,serif" font-size="14.00">logged_in_admin</text>
<text text-anchor="start" x="561.857" y="-230.923" font-family="Times,serif" font-size="14.00">user_params</text>
</g>
<!-- ApplicationController -->
<g id="node4" class="node"><title>ApplicationController</title>
<path fill="none" stroke="black" d="M282.432,-416.719C282.432,-416.719 394.432,-416.719 394.432,-416.719 400.432,-416.719 406.432,-422.719 406.432,-428.719 406.432,-428.719 406.432,-513.719 406.432,-513.719 406.432,-519.719 400.432,-525.719 394.432,-525.719 394.432,-525.719 282.432,-525.719 282.432,-525.719 276.432,-525.719 270.432,-519.719 270.432,-513.719 270.432,-513.719 270.432,-428.719 270.432,-428.719 270.432,-422.719 276.432,-416.719 282.432,-416.719"/>
<text text-anchor="middle" x="338.432" y="-510.519" font-family="Times,serif" font-size="14.00">ApplicationController</text>
<polyline fill="none" stroke="black" points="270.432,-502.719 406.432,-502.719 "/>
<polyline fill="none" stroke="black" points="270.432,-478.719 406.432,-478.719 "/>
<polyline fill="none" stroke="black" points="270.432,-454.719 406.432,-454.719 "/>
<text text-anchor="start" x="278.432" y="-439.519" font-family="Times,serif" font-size="14.00">_layout</text>
<text text-anchor="start" x="278.432" y="-424.519" font-family="Times,serif" font-size="14.00">is_logged</text>
</g>
<!-- ApplicationController&#45;&gt;UsersController -->
<g id="edge1" class="edge"><title>ApplicationController&#45;&gt;UsersController</title>
<path fill="none" stroke="black" d="M270.336,-442.588C225.368,-423.682 167.151,-399.205 124.818,-381.406"/>
</g>
<!-- ApplicationController&#45;&gt;ProductsController -->
<g id="edge2" class="edge"><title>ApplicationController&#45;&gt;ProductsController</title>
<path fill="none" stroke="black" d="M406.744,-436.036C451.908,-412.775 510.539,-382.578 553.8,-360.297"/>
</g>
<!-- StoresController -->
<g id="node5" class="node"><title>StoresController</title>
<path fill="none" stroke="black" d="M122.071,-789.737C122.071,-789.737 204.071,-789.737 204.071,-789.737 210.071,-789.737 216.071,-795.737 216.071,-801.737 216.071,-801.737 216.071,-885.737 216.071,-885.737 216.071,-891.737 210.071,-897.737 204.071,-897.737 204.071,-897.737 122.071,-897.737 122.071,-897.737 116.071,-897.737 110.071,-891.737 110.071,-885.737 110.071,-885.737 110.071,-801.737 110.071,-801.737 110.071,-795.737 116.071,-789.737 122.071,-789.737"/>
<text text-anchor="middle" x="163.071" y="-882.537" font-family="Times,serif" font-size="14.00">StoresController</text>
<polyline fill="none" stroke="black" points="110.071,-874.737 216.071,-874.737 "/>
<text text-anchor="start" x="118.071" y="-859.537" font-family="Times,serif" font-size="14.00">index</text>
<text text-anchor="start" x="118.071" y="-844.537" font-family="Times,serif" font-size="14.00">show</text>
<polyline fill="none" stroke="black" points="110.071,-836.737 216.071,-836.737 "/>
<polyline fill="none" stroke="black" points="110.071,-812.737 216.071,-812.737 "/>
<text text-anchor="start" x="118.071" y="-797.537" font-family="Times,serif" font-size="14.00">_layout</text>
</g>
<!-- ApplicationController&#45;&gt;StoresController -->
<g id="edge3" class="edge"><title>ApplicationController&#45;&gt;StoresController</title>
<path fill="none" stroke="black" d="M312.745,-525.785C279.449,-596.517 221.732,-719.124 188.542,-789.63"/>
</g>
<!-- StaticPagesController -->
<g id="node6" class="node"><title>StaticPagesController</title>
<path fill="none" stroke="black" d="M488.449,-780.623C488.449,-780.623 598.449,-780.623 598.449,-780.623 604.449,-780.623 610.449,-786.623 610.449,-792.623 610.449,-792.623 610.449,-876.623 610.449,-876.623 610.449,-882.623 604.449,-888.623 598.449,-888.623 598.449,-888.623 488.449,-888.623 488.449,-888.623 482.449,-888.623 476.449,-882.623 476.449,-876.623 476.449,-876.623 476.449,-792.623 476.449,-792.623 476.449,-786.623 482.449,-780.623 488.449,-780.623"/>
<text text-anchor="middle" x="543.449" y="-873.423" font-family="Times,serif" font-size="14.00">StaticPagesController</text>
<polyline fill="none" stroke="black" points="476.449,-865.623 610.449,-865.623 "/>
<text text-anchor="start" x="484.449" y="-850.423" font-family="Times,serif" font-size="14.00">help</text>
<text text-anchor="start" x="484.449" y="-835.423" font-family="Times,serif" font-size="14.00">home</text>
<polyline fill="none" stroke="black" points="476.449,-827.623 610.449,-827.623 "/>
<polyline fill="none" stroke="black" points="476.449,-803.623 610.449,-803.623 "/>
<text text-anchor="start" x="484.449" y="-788.423" font-family="Times,serif" font-size="14.00">_layout</text>
</g>
<!-- ApplicationController&#45;&gt;StaticPagesController -->
<g id="edge4" class="edge"><title>ApplicationController&#45;&gt;StaticPagesController</title>
<path fill="none" stroke="black" d="M369.347,-526.017C408.163,-594.821 474.334,-712.113 512.952,-780.566"/>
</g>
<!-- OrdersController -->
<g id="node7" class="node"><title>OrdersController</title>
<path fill="none" stroke="black" d="M12,-493.906C12,-493.906 115,-493.906 115,-493.906 121,-493.906 127,-499.906 127,-505.906 127,-505.906 127,-739.906 127,-739.906 127,-745.906 121,-751.906 115,-751.906 115,-751.906 12,-751.906 12,-751.906 6,-751.906 -5.68434e-14,-745.906 -5.68434e-14,-739.906 -5.68434e-14,-739.906 -5.68434e-14,-505.906 -5.68434e-14,-505.906 -5.68434e-14,-499.906 6,-493.906 12,-493.906"/>
<text text-anchor="middle" x="63.5" y="-736.706" font-family="Times,serif" font-size="14.00">OrdersController</text>
<polyline fill="none" stroke="black" points="-5.68434e-14,-728.906 127,-728.906 "/>
<text text-anchor="start" x="8" y="-713.706" font-family="Times,serif" font-size="14.00">buy</text>
<text text-anchor="start" x="8" y="-698.706" font-family="Times,serif" font-size="14.00">cart</text>
<text text-anchor="start" x="8" y="-683.706" font-family="Times,serif" font-size="14.00">create</text>
<text text-anchor="start" x="8" y="-668.706" font-family="Times,serif" font-size="14.00">destroy</text>
<text text-anchor="start" x="8" y="-653.706" font-family="Times,serif" font-size="14.00">index</text>
<text text-anchor="start" x="8" y="-638.706" font-family="Times,serif" font-size="14.00">manage</text>
<text text-anchor="start" x="8" y="-623.706" font-family="Times,serif" font-size="14.00">update</text>
<polyline fill="none" stroke="black" points="-5.68434e-14,-615.906 127,-615.906 "/>
<polyline fill="none" stroke="black" points="-5.68434e-14,-591.906 127,-591.906 "/>
<text text-anchor="start" x="8" y="-576.706" font-family="Times,serif" font-size="14.00">_layout</text>
<text text-anchor="start" x="8" y="-561.706" font-family="Times,serif" font-size="14.00">logged_in_admin</text>
<text text-anchor="start" x="8" y="-546.706" font-family="Times,serif" font-size="14.00">logged_in_user</text>
<text text-anchor="start" x="8" y="-531.706" font-family="Times,serif" font-size="14.00">logged_in_user_add</text>
<text text-anchor="start" x="8" y="-516.706" font-family="Times,serif" font-size="14.00">logged_in_user_cart</text>
<text text-anchor="start" x="8" y="-501.706" font-family="Times,serif" font-size="14.00">user_params</text>
</g>
<!-- ApplicationController&#45;&gt;OrdersController -->
<g id="edge5" class="edge"><title>ApplicationController&#45;&gt;OrdersController</title>
<path fill="none" stroke="black" d="M270.118,-508.909C226.384,-533.038 170.023,-564.134 127.217,-587.752"/>
</g>
<!-- SessionsController -->
<g id="node8" class="node"><title>SessionsController</title>
<path fill="none" stroke="black" d="M93.4692,-46.3616C93.4692,-46.3616 188.469,-46.3616 188.469,-46.3616 194.469,-46.3616 200.469,-52.3616 200.469,-58.3616 200.469,-58.3616 200.469,-157.362 200.469,-157.362 200.469,-163.362 194.469,-169.362 188.469,-169.362 188.469,-169.362 93.4692,-169.362 93.4692,-169.362 87.4692,-169.362 81.4692,-163.362 81.4692,-157.362 81.4692,-157.362 81.4692,-58.3616 81.4692,-58.3616 81.4692,-52.3616 87.4692,-46.3616 93.4692,-46.3616"/>
<text text-anchor="middle" x="140.969" y="-154.162" font-family="Times,serif" font-size="14.00">SessionsController</text>
<polyline fill="none" stroke="black" points="81.4692,-146.362 200.469,-146.362 "/>
<text text-anchor="start" x="89.4692" y="-131.162" font-family="Times,serif" font-size="14.00">create</text>
<text text-anchor="start" x="89.4692" y="-116.162" font-family="Times,serif" font-size="14.00">destroy</text>
<text text-anchor="start" x="89.4692" y="-101.162" font-family="Times,serif" font-size="14.00">new</text>
<polyline fill="none" stroke="black" points="81.4692,-93.3616 200.469,-93.3616 "/>
<polyline fill="none" stroke="black" points="81.4692,-69.3616 200.469,-69.3616 "/>
<text text-anchor="start" x="89.4692" y="-54.1616" font-family="Times,serif" font-size="14.00">_layout</text>
</g>
<!-- ApplicationController&#45;&gt;SessionsController -->
<g id="edge6" class="edge"><title>ApplicationController&#45;&gt;SessionsController</title>
<path fill="none" stroke="black" d="M308.656,-416.427C272.617,-350.11 212.095,-238.742 174.462,-169.493"/>
</g>
<!-- UpgradesController -->
<g id="node9" class="node"><title>UpgradesController</title>
<path fill="none" stroke="black" d="M475.523,-0.5C475.523,-0.5 575.523,-0.5 575.523,-0.5 581.523,-0.5 587.523,-6.5 587.523,-12.5 587.523,-12.5 587.523,-186.5 587.523,-186.5 587.523,-192.5 581.523,-198.5 575.523,-198.5 575.523,-198.5 475.523,-198.5 475.523,-198.5 469.523,-198.5 463.523,-192.5 463.523,-186.5 463.523,-186.5 463.523,-12.5 463.523,-12.5 463.523,-6.5 469.523,-0.5 475.523,-0.5"/>
<text text-anchor="middle" x="525.523" y="-183.3" font-family="Times,serif" font-size="14.00">UpgradesController</text>
<polyline fill="none" stroke="black" points="463.523,-175.5 587.523,-175.5 "/>
<text text-anchor="start" x="471.523" y="-160.3" font-family="Times,serif" font-size="14.00">create</text>
<text text-anchor="start" x="471.523" y="-145.3" font-family="Times,serif" font-size="14.00">destroy</text>
<text text-anchor="start" x="471.523" y="-130.3" font-family="Times,serif" font-size="14.00">edit</text>
<text text-anchor="start" x="471.523" y="-115.3" font-family="Times,serif" font-size="14.00">index</text>
<text text-anchor="start" x="471.523" y="-100.3" font-family="Times,serif" font-size="14.00">new</text>
<text text-anchor="start" x="471.523" y="-85.3" font-family="Times,serif" font-size="14.00">update</text>
<polyline fill="none" stroke="black" points="463.523,-77.5 587.523,-77.5 "/>
<polyline fill="none" stroke="black" points="463.523,-53.5 587.523,-53.5 "/>
<text text-anchor="start" x="471.523" y="-38.3" font-family="Times,serif" font-size="14.00">_layout</text>
<text text-anchor="start" x="471.523" y="-23.3" font-family="Times,serif" font-size="14.00">logged_in_admin</text>
<text text-anchor="start" x="471.523" y="-8.3" font-family="Times,serif" font-size="14.00">user_params</text>
</g>
<!-- ApplicationController&#45;&gt;UpgradesController -->
<g id="edge7" class="edge"><title>ApplicationController&#45;&gt;UpgradesController</title>
<path fill="none" stroke="black" d="M366.038,-416.37C394.804,-359.218 440.495,-268.437 475.613,-198.664"/>
</g>
<!-- CategoriesController -->
<g id="node10" class="node"><title>CategoriesController</title>
<path fill="none" stroke="black" d="M556.551,-489.153C556.551,-489.153 662.551,-489.153 662.551,-489.153 668.551,-489.153 674.551,-495.153 674.551,-501.153 674.551,-501.153 674.551,-675.153 674.551,-675.153 674.551,-681.153 668.551,-687.153 662.551,-687.153 662.551,-687.153 556.551,-687.153 556.551,-687.153 550.551,-687.153 544.551,-681.153 544.551,-675.153 544.551,-675.153 544.551,-501.153 544.551,-501.153 544.551,-495.153 550.551,-489.153 556.551,-489.153"/>
<text text-anchor="middle" x="609.551" y="-671.953" font-family="Times,serif" font-size="14.00">CategoriesController</text>
<polyline fill="none" stroke="black" points="544.551,-664.153 674.551,-664.153 "/>
<text text-anchor="start" x="552.551" y="-648.953" font-family="Times,serif" font-size="14.00">create</text>
<text text-anchor="start" x="552.551" y="-633.953" font-family="Times,serif" font-size="14.00">destroy</text>
<text text-anchor="start" x="552.551" y="-618.953" font-family="Times,serif" font-size="14.00">edit</text>
<text text-anchor="start" x="552.551" y="-603.953" font-family="Times,serif" font-size="14.00">index</text>
<text text-anchor="start" x="552.551" y="-588.953" font-family="Times,serif" font-size="14.00">new</text>
<text text-anchor="start" x="552.551" y="-573.953" font-family="Times,serif" font-size="14.00">update</text>
<polyline fill="none" stroke="black" points="544.551,-566.153 674.551,-566.153 "/>
<polyline fill="none" stroke="black" points="544.551,-542.153 674.551,-542.153 "/>
<text text-anchor="start" x="552.551" y="-526.953" font-family="Times,serif" font-size="14.00">_layout</text>
<text text-anchor="start" x="552.551" y="-511.953" font-family="Times,serif" font-size="14.00">logged_in_admin</text>
<text text-anchor="start" x="552.551" y="-496.953" font-family="Times,serif" font-size="14.00">user_params</text>
</g>
<!-- ApplicationController&#45;&gt;CategoriesController -->
<g id="edge8" class="edge"><title>ApplicationController&#45;&gt;CategoriesController</title>
<path fill="none" stroke="black" d="M406.497,-500.575C448.691,-518.774 502.599,-542.024 544.265,-559.994"/>
</g>
</g>
</svg>
