<?xml version="1.0" encoding="UTF-8" standalone="no"?>
<!DOCTYPE svg PUBLIC "-//W3C//DTD SVG 1.1//EN"
 "http://www.w3.org/Graphics/SVG/1.1/DTD/svg11.dtd">
<!-- Generated by graphviz version 2.36.0 (20140111.2315)
 -->
<!-- Title: models_diagram Pages: 1 -->
<svg width="579pt" height="750pt"
 viewBox="0.00 0.00 579.00 750.00" xmlns="http://www.w3.org/2000/svg" xmlns:xlink="http://www.w3.org/1999/xlink">
<g id="graph0" class="graph" transform="scale(1 1) rotate(0) translate(4 746)">
<title>models_diagram</title>
<polygon fill="none" stroke="none" points="-4,4 -4,-746 575,-746 575,4 -4,4"/>
<!-- _diagram_info -->
<g id="node1" class="node"><title>_diagram_info</title>
<text text-anchor="start" x="8" y="-727.6" font-family="Times,serif" font-size="13.00">Models diagram</text>
<text text-anchor="start" x="8" y="-713.6" font-family="Times,serif" font-size="13.00">Date: Aug 10 2015 &#45; 10:07</text>
<text text-anchor="start" x="8" y="-699.6" font-family="Times,serif" font-size="13.00">Migration version: 20150730151739</text>
<text text-anchor="start" x="8" y="-685.6" font-family="Times,serif" font-size="13.00">Generated by RailRoady 1.3.1</text>
<text text-anchor="start" x="8" y="-671.6" font-family="Times,serif" font-size="13.00">http://railroady.prestonlee.com</text>
</g>
<!-- User -->
<g id="node2" class="node"><title>User</title>
<path fill="none" stroke="black" d="M438.5,-355.5C438.5,-355.5 559.5,-355.5 559.5,-355.5 565.5,-355.5 571.5,-361.5 571.5,-367.5 571.5,-367.5 571.5,-464.5 571.5,-464.5 571.5,-470.5 565.5,-476.5 559.5,-476.5 559.5,-476.5 438.5,-476.5 438.5,-476.5 432.5,-476.5 426.5,-470.5 426.5,-464.5 426.5,-464.5 426.5,-367.5 426.5,-367.5 426.5,-361.5 432.5,-355.5 438.5,-355.5"/>
<text text-anchor="middle" x="499" y="-461.3" font-family="Times,serif" font-size="14.00">User</text>
<polyline fill="none" stroke="black" points="426.5,-453.5 571.5,-453.5 "/>
<text text-anchor="start" x="434.5" y="-438.3" font-family="Times,serif" font-size="14.00">id :integer</text>
<text text-anchor="start" x="434.5" y="-423.3" font-family="Times,serif" font-size="14.00">name :string</text>
<text text-anchor="start" x="434.5" y="-408.3" font-family="Times,serif" font-size="14.00">created_at :datetime</text>
<text text-anchor="start" x="434.5" y="-393.3" font-family="Times,serif" font-size="14.00">updated_at :datetime</text>
<text text-anchor="start" x="434.5" y="-378.3" font-family="Times,serif" font-size="14.00">admin :boolean</text>
<text text-anchor="start" x="434.5" y="-363.3" font-family="Times,serif" font-size="14.00">password_digest :string</text>
</g>
<!-- Order -->
<g id="node4" class="node"><title>Order</title>
<path fill="none" stroke="black" d="M344.5,-159C344.5,-159 451.5,-159 451.5,-159 457.5,-159 463.5,-165 463.5,-171 463.5,-171 463.5,-283 463.5,-283 463.5,-289 457.5,-295 451.5,-295 451.5,-295 344.5,-295 344.5,-295 338.5,-295 332.5,-289 332.5,-283 332.5,-283 332.5,-171 332.5,-171 332.5,-165 338.5,-159 344.5,-159"/>
<text text-anchor="middle" x="398" y="-279.8" font-family="Times,serif" font-size="14.00">Order</text>
<polyline fill="none" stroke="black" points="332.5,-272 463.5,-272 "/>
<text text-anchor="start" x="340.5" y="-256.8" font-family="Times,serif" font-size="14.00">id :integer</text>
<text text-anchor="start" x="340.5" y="-241.8" font-family="Times,serif" font-size="14.00">user_id :integer</text>
<text text-anchor="start" x="340.5" y="-226.8" font-family="Times,serif" font-size="14.00">product_id :integer</text>
<text text-anchor="start" x="340.5" y="-211.8" font-family="Times,serif" font-size="14.00">status :string</text>
<text text-anchor="start" x="340.5" y="-196.8" font-family="Times,serif" font-size="14.00">price :decimal</text>
<text text-anchor="start" x="340.5" y="-181.8" font-family="Times,serif" font-size="14.00">created_at :datetime</text>
<text text-anchor="start" x="340.5" y="-166.8" font-family="Times,serif" font-size="14.00">updated_at :datetime</text>
</g>
<!-- User&#45;&gt;Order -->
<g id="edge1" class="edge"><title>User&#45;&gt;Order</title>
<path fill="none" stroke="#847c34" d="M462.839,-348.048C455.161,-333.832 447.001,-318.724 439.153,-304.193"/>
<ellipse fill="none" stroke="#847c34" cx="464.864" cy="-351.798" rx="4.00002" ry="4.00002"/>
<polygon fill="#847c34" stroke="#847c34" points="439.066,-304.032 438.273,-293.095 436.69,-299.633 434.313,-295.234 434.313,-295.234 434.313,-295.234 436.69,-299.633 430.354,-297.372 439.066,-304.032 439.066,-304.032"/>
</g>
<!-- Category -->
<g id="node3" class="node"><title>Category</title>
<path fill="none" stroke="black" d="M212.5,-536.5C212.5,-536.5 319.5,-536.5 319.5,-536.5 325.5,-536.5 331.5,-542.5 331.5,-548.5 331.5,-548.5 331.5,-615.5 331.5,-615.5 331.5,-621.5 325.5,-627.5 319.5,-627.5 319.5,-627.5 212.5,-627.5 212.5,-627.5 206.5,-627.5 200.5,-621.5 200.5,-615.5 200.5,-615.5 200.5,-548.5 200.5,-548.5 200.5,-542.5 206.5,-536.5 212.5,-536.5"/>
<text text-anchor="middle" x="266" y="-612.3" font-family="Times,serif" font-size="14.00">Category</text>
<polyline fill="none" stroke="black" points="200.5,-604.5 331.5,-604.5 "/>
<text text-anchor="start" x="208.5" y="-589.3" font-family="Times,serif" font-size="14.00">id :integer</text>
<text text-anchor="start" x="208.5" y="-574.3" font-family="Times,serif" font-size="14.00">name :string</text>
<text text-anchor="start" x="208.5" y="-559.3" font-family="Times,serif" font-size="14.00">created_at :datetime</text>
<text text-anchor="start" x="208.5" y="-544.3" font-family="Times,serif" font-size="14.00">updated_at :datetime</text>
</g>
<!-- Product -->
<g id="node6" class="node"><title>Product</title>
<path fill="none" stroke="black" d="M250.5,-333C250.5,-333 357.5,-333 357.5,-333 363.5,-333 369.5,-339 369.5,-345 369.5,-345 369.5,-487 369.5,-487 369.5,-493 363.5,-499 357.5,-499 357.5,-499 250.5,-499 250.5,-499 244.5,-499 238.5,-493 238.5,-487 238.5,-487 238.5,-345 238.5,-345 238.5,-339 244.5,-333 250.5,-333"/>
<text text-anchor="middle" x="304" y="-483.8" font-family="Times,serif" font-size="14.00">Product</text>
<polyline fill="none" stroke="black" points="238.5,-476 369.5,-476 "/>
<text text-anchor="start" x="246.5" y="-460.8" font-family="Times,serif" font-size="14.00">id :integer</text>
<text text-anchor="start" x="246.5" y="-445.8" font-family="Times,serif" font-size="14.00">name :string</text>
<text text-anchor="start" x="246.5" y="-430.8" font-family="Times,serif" font-size="14.00">desc :string</text>
<text text-anchor="start" x="246.5" y="-415.8" font-family="Times,serif" font-size="14.00">image :string</text>
<text text-anchor="start" x="246.5" y="-400.8" font-family="Times,serif" font-size="14.00">price :decimal</text>
<text text-anchor="start" x="246.5" y="-385.8" font-family="Times,serif" font-size="14.00">discount :integer</text>
<text text-anchor="start" x="246.5" y="-370.8" font-family="Times,serif" font-size="14.00">category_id :integer</text>
<text text-anchor="start" x="246.5" y="-355.8" font-family="Times,serif" font-size="14.00">created_at :datetime</text>
<text text-anchor="start" x="246.5" y="-340.8" font-family="Times,serif" font-size="14.00">updated_at :datetime</text>
</g>
<!-- Category&#45;&gt;Product -->
<g id="edge3" class="edge"><title>Category&#45;&gt;Product</title>
<path fill="none" stroke="#2b60ea" d="M278.232,-528.211C279.64,-522.135 281.104,-515.812 282.589,-509.404"/>
<ellipse fill="none" stroke="#2b60ea" cx="277.287" cy="-532.29" rx="4.00001" ry="4.00001"/>
<polygon fill="#2b60ea" stroke="#2b60ea" points="282.677,-509.027 289.318,-500.301 283.805,-504.156 284.934,-499.285 284.934,-499.285 284.934,-499.285 283.805,-504.156 280.55,-498.269 282.677,-509.027 282.677,-509.027"/>
</g>
<!-- Upgrade -->
<g id="node5" class="node"><title>Upgrade</title>
<path fill="none" stroke="black" d="M250.5,-0.5C250.5,-0.5 357.5,-0.5 357.5,-0.5 363.5,-0.5 369.5,-6.5 369.5,-12.5 369.5,-12.5 369.5,-109.5 369.5,-109.5 369.5,-115.5 363.5,-121.5 357.5,-121.5 357.5,-121.5 250.5,-121.5 250.5,-121.5 244.5,-121.5 238.5,-115.5 238.5,-109.5 238.5,-109.5 238.5,-12.5 238.5,-12.5 238.5,-6.5 244.5,-0.5 250.5,-0.5"/>
<text text-anchor="middle" x="304" y="-106.3" font-family="Times,serif" font-size="14.00">Upgrade</text>
<polyline fill="none" stroke="black" points="238.5,-98.5 369.5,-98.5 "/>
<text text-anchor="start" x="246.5" y="-83.3" font-family="Times,serif" font-size="14.00">id :integer</text>
<text text-anchor="start" x="246.5" y="-68.3" font-family="Times,serif" font-size="14.00">name :string</text>
<text text-anchor="start" x="246.5" y="-53.3" font-family="Times,serif" font-size="14.00">price :decimal</text>
<text text-anchor="start" x="246.5" y="-38.3" font-family="Times,serif" font-size="14.00">product_id :integer</text>
<text text-anchor="start" x="246.5" y="-23.3" font-family="Times,serif" font-size="14.00">created_at :datetime</text>
<text text-anchor="start" x="246.5" y="-8.3" font-family="Times,serif" font-size="14.00">updated_at :datetime</text>
</g>
<!-- Order&#45;&gt;Upgrade -->
<g id="edge5" class="edge"><title>Order&#45;&gt;Upgrade</title>
<path fill="none" stroke="#d3f633" d="M354.505,-150.115C350.75,-143.563 346.964,-136.959 343.245,-130.47"/>
<polygon fill="#d3f633" stroke="#d3f633" points="354.523,-150.146 355.591,-161.06 357.009,-154.484 359.495,-158.822 359.495,-158.822 359.495,-158.822 357.009,-154.484 363.4,-156.584 354.523,-150.146 354.523,-150.146"/>
<polygon fill="#d3f633" stroke="#d3f633" points="343.197,-130.387 342.129,-119.473 340.711,-126.049 338.224,-121.711 338.224,-121.711 338.224,-121.711 340.711,-126.049 334.32,-123.948 343.197,-130.387 343.197,-130.387"/>
</g>
<!-- Product&#45;&gt;Order -->
<g id="edge10" class="edge"><title>Product&#45;&gt;Order</title>
<path fill="none" stroke="#09bfee" d="M348.971,-325.536C352.513,-318.491 356.069,-311.415 359.561,-304.47"/>
<ellipse fill="none" stroke="#09bfee" cx="347.026" cy="-329.405" rx="4.00002" ry="4.00002"/>
<polygon fill="#09bfee" stroke="#09bfee" points="359.783,-304.028 368.295,-297.115 362.028,-299.561 364.274,-295.093 364.274,-295.093 364.274,-295.093 362.028,-299.561 360.253,-293.072 359.783,-304.028 359.783,-304.028"/>
</g>
<!-- Product&#45;&gt;Upgrade -->
<g id="edge9" class="edge"><title>Product&#45;&gt;Upgrade</title>
<path fill="none" stroke="#a5c90e" d="M304,-324.607C304,-264.526 304,-186.814 304,-131.553"/>
<ellipse fill="none" stroke="#a5c90e" cx="304" cy="-328.683" rx="4" ry="4"/>
<polygon fill="#a5c90e" stroke="#a5c90e" points="304,-131.505 308.5,-121.505 304,-126.505 304,-121.505 304,-121.505 304,-121.505 304,-126.505 299.5,-121.505 304,-131.505 304,-131.505"/>
</g>
<!-- Store -->
<g id="node7" class="node"><title>Store</title>
<path fill="none" stroke="black" d="M156.5,-181.5C156.5,-181.5 263.5,-181.5 263.5,-181.5 269.5,-181.5 275.5,-187.5 275.5,-193.5 275.5,-193.5 275.5,-260.5 275.5,-260.5 275.5,-266.5 269.5,-272.5 263.5,-272.5 263.5,-272.5 156.5,-272.5 156.5,-272.5 150.5,-272.5 144.5,-266.5 144.5,-260.5 144.5,-260.5 144.5,-193.5 144.5,-193.5 144.5,-187.5 150.5,-181.5 156.5,-181.5"/>
<text text-anchor="middle" x="210" y="-257.3" font-family="Times,serif" font-size="14.00">Store</text>
<polyline fill="none" stroke="black" points="144.5,-249.5 275.5,-249.5 "/>
<text text-anchor="start" x="152.5" y="-234.3" font-family="Times,serif" font-size="14.00">id :integer</text>
<text text-anchor="start" x="152.5" y="-219.3" font-family="Times,serif" font-size="14.00">place :string</text>
<text text-anchor="start" x="152.5" y="-204.3" font-family="Times,serif" font-size="14.00">created_at :datetime</text>
<text text-anchor="start" x="152.5" y="-189.3" font-family="Times,serif" font-size="14.00">updated_at :datetime</text>
</g>
<!-- Product&#45;&gt;Store -->
<g id="edge8" class="edge"><title>Product&#45;&gt;Store</title>
<path fill="none" stroke="#4dc932" d="M258.117,-323.721C250.938,-309.44 243.724,-295.09 237.146,-282.004"/>
<polygon fill="#4dc932" stroke="#4dc932" points="258.279,-324.044 258.75,-335 260.525,-328.512 262.77,-332.979 262.77,-332.979 262.77,-332.979 260.525,-328.512 266.791,-330.958 258.279,-324.044 258.279,-324.044"/>
<polygon fill="#4dc932" stroke="#4dc932" points="236.97,-281.653 236.499,-270.697 234.724,-277.185 232.478,-272.718 232.478,-272.718 232.478,-272.718 234.724,-277.185 228.458,-274.739 236.97,-281.653 236.97,-281.653"/>
</g>
<!-- ActiveRecord::Base -->
<g id="node8" class="node"><title>ActiveRecord::Base</title>
<ellipse fill="none" stroke="black" cx="313" cy="-703" rx="81.3646" ry="18"/>
<text text-anchor="middle" x="313" y="-699.3" font-family="Times,serif" font-size="14.00">ActiveRecord::Base</text>
</g>
<!-- ActiveRecord::Base&#45;&gt;User -->
<g id="edge2" class="edge"><title>ActiveRecord::Base&#45;&gt;User</title>
<path fill="none" stroke="black" d="M342.388,-685.919C364.099,-672.774 393.055,-652.411 412,-628 446.983,-582.925 470.138,-521.797 483.702,-476.939"/>
</g>
<!-- ActiveRecord::Base&#45;&gt;Category -->
<g id="edge4" class="edge"><title>ActiveRecord::Base&#45;&gt;Category</title>
<path fill="none" stroke="black" d="M306.266,-684.95C300.377,-670.04 291.558,-647.71 283.672,-627.745"/>
</g>
<!-- ActiveRecord::Base&#45;&gt;Order -->
<g id="edge6" class="edge"><title>ActiveRecord::Base&#45;&gt;Order</title>
<path fill="none" stroke="black" d="M325.296,-684.93C335.117,-670.464 348.444,-648.81 356,-628 396.514,-516.423 401.742,-376.643 400.682,-295.32"/>
</g>
<!-- ActiveRecord::Base&#45;&gt;Upgrade -->
<g id="edge7" class="edge"><title>ActiveRecord::Base&#45;&gt;Upgrade</title>
<path fill="none" stroke="black" d="M276.595,-686.911C233.095,-668.536 165.232,-638.633 158,-628 74.8176,-505.698 140.114,-443.821 135,-296 132.879,-234.703 104.147,-211.008 135,-158 157.236,-119.796 200.969,-95.553 238.375,-80.987"/>
</g>
<!-- ActiveRecord::Base&#45;&gt;Product -->
<g id="edge11" class="edge"><title>ActiveRecord::Base&#45;&gt;Product</title>
<path fill="none" stroke="black" d="M321.218,-684.835C327.774,-670.134 336.43,-648.2 340,-628 347.116,-587.735 345.984,-576.449 340,-536 338.215,-523.936 335.465,-511.401 332.262,-499.19"/>
</g>
<!-- ActiveRecord::Base&#45;&gt;Store -->
<g id="edge12" class="edge"><title>ActiveRecord::Base&#45;&gt;Store</title>
<path fill="none" stroke="black" d="M268.607,-687.816C240.927,-676.407 207.529,-657.357 191,-628 126.621,-513.654 167.504,-350.476 193.427,-272.635"/>
</g>
</g>
</svg>
