<?xml version="1.0" encoding="UTF-8" standalone="no"?>
<!DOCTYPE svg PUBLIC "-//W3C//DTD SVG 1.1//EN"
 "http://www.w3.org/Graphics/SVG/1.1/DTD/svg11.dtd">
<!-- Generated by graphviz version 2.36.0 (20140111.2315)
 -->
<!-- Title: models_diagram Pages: 1 -->
<svg width="476pt" height="374pt"
 viewBox="0.00 0.00 476.00 374.00" xmlns="http://www.w3.org/2000/svg" xmlns:xlink="http://www.w3.org/1999/xlink">
<g id="graph0" class="graph" transform="scale(1 1) rotate(0) translate(4 370)">
<title>models_diagram</title>
<polygon fill="none" stroke="none" points="-4,4 -4,-370 472,-370 472,4 -4,4"/>
<!-- _diagram_info -->
<g id="node1" class="node"><title>_diagram_info</title>
<text text-anchor="start" x="8" y="-351.6" font-family="Times,serif" font-size="13.00">Models diagram</text>
<text text-anchor="start" x="8" y="-337.6" font-family="Times,serif" font-size="13.00">Date: Aug 09 2015 &#45; 08:13</text>
<text text-anchor="start" x="8" y="-323.6" font-family="Times,serif" font-size="13.00">Migration version: 20150730151739</text>
<text text-anchor="start" x="8" y="-309.6" font-family="Times,serif" font-size="13.00">Generated by RailRoady 1.3.1</text>
<text text-anchor="start" x="8" y="-295.6" font-family="Times,serif" font-size="13.00">http://railroady.prestonlee.com</text>
</g>
<!-- User -->
<g id="node2" class="node"><title>User</title>
<ellipse fill="none" stroke="black" cx="441" cy="-162" rx="26.949" ry="18"/>
<text text-anchor="middle" x="441" y="-158.3" font-family="Times,serif" font-size="14.00">User</text>
</g>
<!-- Order -->
<g id="node4" class="node"><title>Order</title>
<ellipse fill="none" stroke="black" cx="377" cy="-90" rx="31.2965" ry="18"/>
<text text-anchor="middle" x="377" y="-86.3" font-family="Times,serif" font-size="14.00">Order</text>
</g>
<!-- User&#45;&gt;Order -->
<g id="edge1" class="edge"><title>User&#45;&gt;Order</title>
<path fill="none" stroke="#b84f59" d="M421.853,-140.058C414.26,-131.753 405.509,-122.181 397.764,-113.71"/>
<ellipse fill="none" stroke="#b84f59" cx="424.728" cy="-143.203" rx="4.00002" ry="4.00002"/>
<polygon fill="#b84f59" stroke="#b84f59" points="397.743,-113.688 394.317,-103.271 394.369,-109.998 390.996,-106.308 390.996,-106.308 390.996,-106.308 394.369,-109.998 387.674,-109.344 397.743,-113.688 397.743,-113.688"/>
</g>
<!-- Category -->
<g id="node3" class="node"><title>Category</title>
<ellipse fill="none" stroke="black" cx="277" cy="-234" rx="42.3456" ry="18"/>
<text text-anchor="middle" x="277" y="-230.3" font-family="Times,serif" font-size="14.00">Category</text>
</g>
<!-- Product -->
<g id="node6" class="node"><title>Product</title>
<ellipse fill="none" stroke="black" cx="310" cy="-162" rx="38.0212" ry="18"/>
<text text-anchor="middle" x="310" y="-158.3" font-family="Times,serif" font-size="14.00">Product</text>
</g>
<!-- Category&#45;&gt;Product -->
<g id="edge3" class="edge"><title>Category&#45;&gt;Product</title>
<path fill="none" stroke="#e6a449" d="M288.449,-208.714C291.472,-202.302 294.746,-195.358 297.807,-188.865"/>
<ellipse fill="none" stroke="#e6a449" cx="286.694" cy="-212.437" rx="4.00002" ry="4.00002"/>
<polygon fill="#e6a449" stroke="#e6a449" points="297.821,-188.834 306.156,-181.708 299.953,-184.312 302.085,-179.789 302.085,-179.789 302.085,-179.789 299.953,-184.312 298.015,-177.87 297.821,-188.834 297.821,-188.834"/>
</g>
<!-- Upgrade -->
<g id="node5" class="node"><title>Upgrade</title>
<ellipse fill="none" stroke="black" cx="310" cy="-18" rx="40.4202" ry="18"/>
<text text-anchor="middle" x="310" y="-14.3" font-family="Times,serif" font-size="14.00">Upgrade</text>
</g>
<!-- Order&#45;&gt;Upgrade -->
<g id="edge5" class="edge"><title>Order&#45;&gt;Upgrade</title>
<path fill="none" stroke="#80920a" d="M355.37,-66.4013C348.055,-58.7591 339.873,-50.2108 332.493,-42.5003"/>
<polygon fill="#80920a" stroke="#80920a" points="355.547,-66.5868 359.211,-76.9226 359.005,-70.1989 362.462,-73.811 362.462,-73.811 362.462,-73.811 359.005,-70.1989 365.713,-70.6995 355.547,-66.5868 355.547,-66.5868"/>
<polygon fill="#80920a" stroke="#80920a" points="332.357,-42.3578 328.693,-32.022 328.899,-38.7457 325.442,-35.1336 325.442,-35.1336 325.442,-35.1336 328.899,-38.7457 322.191,-38.2451 332.357,-42.3578 332.357,-42.3578"/>
</g>
<!-- Product&#45;&gt;Order -->
<g id="edge10" class="edge"><title>Product&#45;&gt;Order</title>
<path fill="none" stroke="#6c8edf" d="M330.955,-139.107C338.671,-131.046 347.424,-121.9 355.212,-113.763"/>
<ellipse fill="none" stroke="#6c8edf" cx="327.969" cy="-142.226" rx="4.00002" ry="4.00002"/>
<polygon fill="#6c8edf" stroke="#6c8edf" points="355.403,-113.564 365.568,-109.452 358.86,-109.952 362.317,-106.34 362.317,-106.34 362.317,-106.34 358.86,-109.952 359.066,-103.229 355.403,-113.564 355.403,-113.564"/>
</g>
<!-- Product&#45;&gt;Upgrade -->
<g id="edge9" class="edge"><title>Product&#45;&gt;Upgrade</title>
<path fill="none" stroke="#ae614d" d="M310,-135.558C310,-110.444 310,-72.164 310,-46.3932"/>
<ellipse fill="none" stroke="#ae614d" cx="310" cy="-139.871" rx="4" ry="4"/>
<polygon fill="#ae614d" stroke="#ae614d" points="310,-46.1893 314.5,-36.1892 310,-41.1893 310,-36.1893 310,-36.1893 310,-36.1893 310,-41.1893 305.5,-36.1893 310,-46.1893 310,-46.1893"/>
</g>
<!-- Store -->
<g id="node7" class="node"><title>Store</title>
<ellipse fill="none" stroke="black" cx="244" cy="-90" rx="29.3722" ry="18"/>
<text text-anchor="middle" x="244" y="-86.3" font-family="Times,serif" font-size="14.00">Store</text>
</g>
<!-- Product&#45;&gt;Store -->
<g id="edge8" class="edge"><title>Product&#45;&gt;Store</title>
<path fill="none" stroke="#1106c9" d="M288.127,-137.802C280.685,-129.908 272.388,-121.108 265.014,-113.288"/>
<polygon fill="#1106c9" stroke="#1106c9" points="288.163,-137.84 291.749,-148.203 291.593,-141.478 295.024,-145.116 295.024,-145.116 295.024,-145.116 291.593,-141.478 298.298,-142.029 288.163,-137.84 288.163,-137.84"/>
<polygon fill="#1106c9" stroke="#1106c9" points="264.875,-113.14 261.289,-102.777 261.445,-109.502 258.015,-105.864 258.015,-105.864 258.015,-105.864 261.445,-109.502 254.74,-108.951 264.875,-113.14 264.875,-113.14"/>
</g>
<!-- ActiveRecord::Base -->
<g id="node8" class="node"><title>ActiveRecord::Base</title>
<ellipse fill="none" stroke="black" cx="313" cy="-327" rx="81.3646" ry="18"/>
<text text-anchor="middle" x="313" y="-323.3" font-family="Times,serif" font-size="14.00">ActiveRecord::Base</text>
</g>
<!-- ActiveRecord::Base&#45;&gt;User -->
<g id="edge2" class="edge"><title>ActiveRecord::Base&#45;&gt;User</title>
<path fill="none" stroke="black" d="M337.306,-309.809C356.315,-296.178 382.387,-275.225 400,-252 417.064,-229.499 429.238,-198.757 435.688,-179.922"/>
</g>
<!-- ActiveRecord::Base&#45;&gt;Category -->
<g id="edge4" class="edge"><title>ActiveRecord::Base&#45;&gt;Category</title>
<path fill="none" stroke="black" d="M306.229,-308.884C299.792,-292.614 290.167,-268.284 283.741,-252.04"/>
</g>
<!-- ActiveRecord::Base&#45;&gt;Order -->
<g id="edge6" class="edge"><title>ActiveRecord::Base&#45;&gt;Order</title>
<path fill="none" stroke="black" d="M320.589,-308.93C326.961,-294.105 335.967,-271.943 342,-252 357.572,-200.528 369.148,-137.827 374.2,-108.149"/>
</g>
<!-- ActiveRecord::Base&#45;&gt;Upgrade -->
<g id="edge7" class="edge"><title>ActiveRecord::Base&#45;&gt;Upgrade</title>
<path fill="none" stroke="black" d="M278.155,-310.595C254.981,-298.325 226.273,-278.755 212,-252 181.85,-195.484 207.334,-172.042 206,-108 205.667,-92.0035 197.641,-85.6425 206,-72 220.876,-47.7229 250.749,-34.1294 274.677,-26.8052"/>
</g>
<!-- ActiveRecord::Base&#45;&gt;Product -->
<g id="edge11" class="edge"><title>ActiveRecord::Base&#45;&gt;Product</title>
<path fill="none" stroke="black" d="M318.53,-308.807C324.774,-287.12 333.403,-248.708 328,-216 325.941,-203.536 321.332,-190.063 317.293,-179.821"/>
</g>
<!-- ActiveRecord::Base&#45;&gt;Store -->
<g id="edge12" class="edge"><title>ActiveRecord::Base&#45;&gt;Store</title>
<path fill="none" stroke="black" d="M282.873,-310.064C262.37,-297.372 236.881,-277.515 225,-252 202.307,-203.267 224.053,-137.631 236.558,-107.442"/>
</g>
</g>
</svg>
